<?xml version="1.0" encoding="UTF-8"?>
<svg version="1.1" xmlns="http://www.w3.org/2000/svg" width="18" height="21">
<path d="M0 0 C5.94 0 11.88 0 18 0 C18 6.93 18 13.86 18 21 C12.06 21 6.12 21 0 21 C0 14.07 0 7.14 0 0 Z " fill="#FFFFFF" transform="translate(0,0)"/>
<path d="M0 0 C5.94 0 11.88 0 18 0 C18 6.93 18 13.86 18 21 C12.06 21 6.12 21 0 21 C0 14.07 0 7.14 0 0 Z M2 5 C2 9.62 2 14.24 2 19 C6.62 19 11.24 19 16 19 C16 14.38 16 9.76 16 5 C11.38 5 6.76 5 2 5 Z " fill="#747474" transform="translate(0,0)"/>
<path d="M0 0 C5.94 0 11.88 0 18 0 C18 1.32 18 2.64 18 4 C17.195625 3.814375 16.39125 3.62875 15.5625 3.4375 C14.2940625 3.2209375 14.2940625 3.2209375 13 3 C12.67 3.33 12.34 3.66 12 4 C10.00045254 4.04254356 7.99958364 4.04080783 6 4 C5.34 4 4.68 4 4 4 C2.68 4 1.36 4 0 4 C0 2.68 0 1.36 0 0 Z " fill="#BCBCBC" transform="translate(0,0)"/>
<path d="M0 0 C2.31 0 4.62 0 7 0 C7 1.32 7 2.64 7 4 C4.625 3.6875 4.625 3.6875 2 3 C1.34 2.01 0.68 1.02 0 0 Z " fill="#FAFAFA" transform="translate(11,0)"/>
<path d="M0 0 C2.31 0 4.62 0 7 0 C5.75 2 5.75 2 4 4 C2.68 4 1.36 4 0 4 C0 2.68 0 1.36 0 0 Z " fill="#FAFAFA" transform="translate(0,0)"/>
</svg>
