<?xml version="1.0" encoding="UTF-8"?>
<svg version="1.1" xmlns="http://www.w3.org/2000/svg" width="32" height="56">
<path d="M0 0 C10.56 0 21.12 0 32 0 C32 18.48 32 36.96 32 56 C21.44 56 10.88 56 0 56 C0 37.52 0 19.04 0 0 Z " fill="#0B0B0B" transform="translate(0,0)"/>
<path d="M0 0 C3.91000474 1.95500237 6.36932803 4.12487602 9.3515625 7.19140625 C9.8516684 7.69671371 10.35177429 8.20202118 10.86703491 8.72264099 C12.45786943 10.33123084 14.04183084 11.94636819 15.625 13.5625 C17.21617776 15.18130238 18.80879701 16.79861821 20.40438843 18.41307068 C21.39547098 19.41640427 22.38386808 20.42239908 23.36929321 21.43128967 C25.92858681 24.05171465 25.92858681 24.05171465 29 26 C29.66 24.02 30.32 22.04 31 20 C31.33 20 31.66 20 32 20 C32 22.31 32 24.62 32 27 C21.44 27 10.88 27 0 27 C0 18.09 0 9.18 0 0 Z " fill="#F6F6F6" transform="translate(0,29)"/>
<path d="M0 0 C0 12.87 0 25.74 0 39 C-5.02591316 34.69207444 -9.66089478 30.42439901 -14.25585938 25.70507812 C-16.86489872 23.00858488 -16.86489872 23.00858488 -20 21 C-18.5450489 17.65215892 -16.70194509 15.45622627 -14.12109375 12.890625 C-13.36505859 12.13652344 -12.60902344 11.38242187 -11.83007812 10.60546875 C-11.04052734 9.82816406 -10.25097656 9.05085938 -9.4375 8.25 C-8.64408203 7.45722656 -7.85066406 6.66445312 -7.03320312 5.84765625 C-1.14025522 0 -1.14025522 0 0 0 Z " fill="#F8F8F8" transform="translate(32,8)"/>
<path d="M0 0 C10.56 0 21.12 0 32 0 C32 2.31 32 4.62 32 7 C29 3.25 29 3.25 29 1 C24.88485597 3.22663011 21.75166794 5.99631541 18.515625 9.32421875 C18.01456238 9.83048294 17.51349976 10.33674713 16.99725342 10.85835266 C15.40996284 12.46334761 13.82958141 14.07492032 12.25 15.6875 C10.65523715 17.30985805 9.05903429 18.93073283 7.4598999 20.54878235 C6.46775755 21.55321244 5.47830016 22.5603029 4.49176025 23.57023621 C3.34657477 24.73225654 2.17582727 25.86899546 1 27 C0.67 27 0.34 27 0 27 C0 18.09 0 9.18 0 0 Z " fill="#FFFFFF" transform="translate(0,0)"/>
<path d="M0 0 C1.65 0 3.3 0 5 0 C5 2.31 5 4.62 5 7 C2 3.25 2 3.25 2 1 C1.34 0.67 0.68 0.34 0 0 Z " fill="#E8E8E8" transform="translate(27,0)"/>
</svg>
