<?xml version="1.0" encoding="UTF-8"?>
<svg version="1.1" xmlns="http://www.w3.org/2000/svg" width="23" height="16">
<path d="M0 0 C7.59 0 15.18 0 23 0 C23 5.28 23 10.56 23 16 C15.41 16 7.82 16 0 16 C0 10.72 0 5.44 0 0 Z " fill="#141414" transform="translate(0,0)"/>
<path d="M0 0 C1.464375 0.928125 2.92875 1.85625 4.4375 2.8125 C8.40082244 4.86657114 8.40082244 4.86657114 12.66796875 4.21875 C15.43574514 2.69325201 15.43574514 2.69325201 19 0 C19 3.63 19 7.26 19 11 C12.73 11 6.46 11 0 11 C0 7.37 0 3.74 0 0 Z " fill="#F9F9F9" transform="translate(2,3)"/>
<path d="M0 0 C1.32 0 2.64 0 4 0 C4 5.28 4 10.56 4 16 C-2.93 15.67 -9.86 15.34 -17 15 C-17 14.67 -17 14.34 -17 14 C-10.73 14 -4.46 14 2 14 C2 10.37 2 6.74 2 3 C1.34 3 0.68 3 0 3 C0 2.01 0 1.02 0 0 Z " fill="#1D1D1D" transform="translate(19,0)"/>
<path d="M0 0 C4.29 0 8.58 0 13 0 C9 4 9 4 6 5 C2.8125 3.125 2.8125 3.125 0 1 C0 0.67 0 0.34 0 0 Z " fill="#EDEDED" transform="translate(5,2)"/>
</svg>
