<?xml version="1.0" encoding="UTF-8"?>
<svg version="1.1" xmlns="http://www.w3.org/2000/svg" width="27" height="27">
<path d="M0 0 C8.91 0 17.82 0 27 0 C27 8.91 27 17.82 27 27 C18.09 27 9.18 27 0 27 C0 18.09 0 9.18 0 0 Z " fill="#FCFCFC" transform="translate(0,0)"/>
<path d="M0 0 C2.91927604 1.3961755 4.72202996 2.72202996 7 5 C6.67 6.32 6.34 7.64 6 9 C-0.27 9 -6.54 9 -13 9 C-13.33 7.68 -13.66 6.36 -14 5 C-9.23568564 0.23568564 -6.7466995 -0.85672375 0 0 Z " fill="#242424" transform="translate(17,14)"/>
<path d="M0 0 C2.5625 0.3125 2.5625 0.3125 4.4375 1.4375 C5.5625 3.3125 5.5625 3.3125 5.3125 6.4375 C4.5625 9.3125 4.5625 9.3125 3.5625 10.3125 C0.125 10.5625 0.125 10.5625 -3.4375 10.3125 C-5.4375 7.3125 -5.4375 7.3125 -5.1875 4.75 C-4.19253762 1.51637226 -3.41216263 0.43745675 0 0 Z " fill="#2C2C2C" transform="translate(13.4375,1.6875)"/>
<path d="M0 0 C1.0209375 0.804375 1.0209375 0.804375 2.0625 1.625 C2.0625 2.285 2.0625 2.945 2.0625 3.625 C-3.5475 3.625 -9.1575 3.625 -14.9375 3.625 C-11.82446741 -2.60106518 -6.14397534 -2.87590335 0 0 Z " fill="#F4F4F4" transform="translate(19.9375,17.375)"/>
<path d="M0 0 C1.2065625 0.0309375 1.2065625 0.0309375 2.4375 0.0625 C3.0625 2.4375 3.0625 2.4375 3.4375 5.0625 C2.7775 5.7225 2.1175 6.3825 1.4375 7.0625 C-0.6875 6.6875 -0.6875 6.6875 -2.5625 6.0625 C-2.94468767 4.40635343 -3.27645102 2.73792976 -3.5625 1.0625 C-2.5625 0.0625 -2.5625 0.0625 0 0 Z " fill="#E3E3E3" transform="translate(13.5625,3.9375)"/>
<path d="M0 0 C1.32 0.33 2.64 0.66 4 1 C4.625 3.3125 4.625 3.3125 5 6 C4.01 7.485 4.01 7.485 3 9 C-0.125 9.1875 -0.125 9.1875 -3 9 C-2.360625 8.773125 -1.72125 8.54625 -1.0625 8.3125 C1.23783339 7.14757132 1.23783339 7.14757132 1.875 4.5 C1.91625 3.675 1.9575 2.85 2 2 C1.34 1.34 0.68 0.68 0 0 Z " fill="#212121" transform="translate(14,3)"/>
</svg>
