<?xml version="1.0" encoding="UTF-8"?>
<svg version="1.1" xmlns="http://www.w3.org/2000/svg" width="32" height="56">
<path d="M0 0 C10.56 0 21.12 0 32 0 C32 18.48 32 36.96 32 56 C21.44 56 10.88 56 0 56 C0 37.52 0 19.04 0 0 Z " fill="#1B1B1B" transform="translate(0,0)"/>
<path d="M0 0 C4.61893798 3.95908969 9.14683371 7.8909502 13.5 12.125 C14.04914062 12.63675781 14.59828125 13.14851563 15.1640625 13.67578125 C16.71875 15.1953125 16.71875 15.1953125 19 18 C18.76409123 21.73744172 16.80144306 23.56113368 14.21875 26.109375 C13.45949219 26.86347656 12.70023438 27.61757813 11.91796875 28.39453125 C10.72107422 29.56048828 10.72107422 29.56048828 9.5 30.75 C8.30310547 31.93916016 8.30310547 31.93916016 7.08203125 33.15234375 C1.1538565 39 1.1538565 39 0 39 C0 26.13 0 13.26 0 0 Z " fill="#F9F9F9" transform="translate(0,8)"/>
<path d="M0 0 C0 8.91 0 17.82 0 27 C-8.91 27 -17.82 27 -27 27 C-23.39445886 22.79353534 -19.95709997 18.82976127 -16.07421875 14.94140625 C-15.19572266 14.06162109 -14.31722656 13.18183594 -13.41210938 12.27539062 C-12.51298828 11.38013672 -11.61386719 10.48488281 -10.6875 9.5625 C-9.30981445 8.17901367 -9.30981445 8.17901367 -7.90429688 6.76757812 C-7.03224609 5.89681641 -6.16019531 5.02605469 -5.26171875 4.12890625 C-4.46725342 3.33556885 -3.67278809 2.54223145 -2.85424805 1.72485352 C-1 0 -1 0 0 0 Z " fill="#FFFFFF" transform="translate(32,29)"/>
<path d="M0 0 C8.91 0 17.82 0 27 0 C27 8.91 27 17.82 27 27 C22.79353534 23.39445886 18.82976127 19.95709997 14.94140625 16.07421875 C13.62172852 14.75647461 13.62172852 14.75647461 12.27539062 13.41210938 C11.38013672 12.51298828 10.48488281 11.61386719 9.5625 10.6875 C8.64017578 9.76904297 7.71785156 8.85058594 6.76757812 7.90429688 C5.89681641 7.03224609 5.02605469 6.16019531 4.12890625 5.26171875 C3.33556885 4.46725342 2.54223145 3.67278809 1.72485352 2.85424805 C0 1 0 1 0 0 Z " fill="#FFFFFF" transform="translate(5,0)"/>
</svg>
