<?xml version="1.0" encoding="UTF-8"?>
<svg version="1.1" xmlns="http://www.w3.org/2000/svg" width="27" height="27">
<path d="M0 0 C8.91 0 17.82 0 27 0 C27 8.91 27 17.82 27 27 C18.09 27 9.18 27 0 27 C0 18.09 0 9.18 0 0 Z " fill="#FAFAFA" transform="translate(0,0)"/>
<path d="M0 0 C2.5642661 1.79969134 3.35119499 3.1810753 5 6 C5.39127722 9.19543067 5.11690472 11.50900018 4.375 14.625 C3.92732587 17.46026949 4.49668552 18.61238289 6 21 C5.45085938 20.65582031 4.90171875 20.31164062 4.3359375 19.95703125 C1.40111111 18.75463582 -0.27519919 19.14481779 -3.375 19.6875 C-7.08844264 20.08962414 -9.52091505 20.3475851 -12.625 18.125 C-15.259037 14.65916184 -16.08346463 12.50991204 -16.3125 8.22265625 C-15.76471499 4.32653534 -13.83898983 2.64092077 -11 0 C-7.46349897 -1.76825051 -3.72112302 -1.03934815 0 0 Z " fill="#F5F5F5" transform="translate(18,3)"/>
<path d="M0 0 C2.5642661 1.79969134 3.35119499 3.1810753 5 6 C5.39127722 9.19543067 5.11690472 11.50900018 4.375 14.625 C3.92732587 17.46026949 4.49668552 18.61238289 6 21 C5.45085938 20.65582031 4.90171875 20.31164062 4.3359375 19.95703125 C1.40111111 18.75463582 -0.27519919 19.14481779 -3.375 19.6875 C-7.08844264 20.08962414 -9.52091505 20.3475851 -12.625 18.125 C-15.259037 14.65916184 -16.08346463 12.50991204 -16.3125 8.22265625 C-15.76471499 4.32653534 -13.83898983 2.64092077 -11 0 C-7.46349897 -1.76825051 -3.72112302 -1.03934815 0 0 Z M-11.875 3.125 C-14.19256661 5.82345264 -14.19256661 5.82345264 -14.5625 9 C-13.8491179 12.80470451 -12.88381579 14.41196019 -10 17 C-5.88546541 18.27176524 -3.97148295 18.50686067 -0.125 16.5 C2.64839572 13.23718151 3.07481382 11.26438773 3 7 C1.23358828 4.19810554 -0.03049822 2.48475089 -3 1 C-7.05263598 0.45964854 -8.53730231 0.65800605 -11.875 3.125 Z " fill="#262626" transform="translate(18,3)"/>
<path d="M0 0 C0.33 0.66 0.66 1.32 1 2 C-0.6396875 2.2165625 -0.6396875 2.2165625 -2.3125 2.4375 C-5.93122987 2.88288104 -5.93122987 2.88288104 -9 4 C-9.66 7.3 -10.32 10.6 -11 14 C-11.66 13.67 -12.32 13.34 -13 13 C-13.34751969 10.08083462 -13.53280018 7.86804524 -11.95703125 5.30078125 C-8.00083025 0.50925335 -6.06199248 -0.13178245 0 0 Z " fill="#171717" transform="translate(15,2)"/>
<path d="M0 0 C0.86625 0.804375 1.7325 1.60875 2.625 2.4375 C5.62876093 4.96924136 8.03203262 5.71657376 12 6 C11.67 6.66 11.34 7.32 11 8 C8.03155565 8.35338623 5.84401782 8.5417682 3.265625 6.88671875 C1.79651181 5.64496832 0.39295186 4.32662082 -1 3 C-0.67 2.01 -0.34 1.02 0 0 Z " fill="#292929" transform="translate(4,15)"/>
<path d="M0 0 C3 3.33333333 3 3.33333333 3 6 C2.443125 5.690625 1.88625 5.38125 1.3125 5.0625 C-1.12540433 3.94238179 -3.36224186 3.43962636 -6 3 C-3.375 0 -3.375 0 0 0 Z " fill="#1B1B1B" transform="translate(21,18)"/>
</svg>
