<?xml version="1.0" encoding="UTF-8"?>
<svg version="1.1" xmlns="http://www.w3.org/2000/svg" width="23" height="18">
<path d="M0 0 C7.59 0 15.18 0 23 0 C23 5.94 23 11.88 23 18 C15.41 18 7.82 18 0 18 C0 12.06 0 6.12 0 0 Z " fill="#0B0B0B" transform="translate(0,0)"/>
<path d="M0 0 C1.98 0 3.96 0 6 0 C6 5.94 6 11.88 6 18 C1.71 18 -2.58 18 -7 18 C-6.01 17.34 -5.02 16.68 -4 16 C0.90163645 11.95614993 2.40605853 7.94812305 4 2 C2.68 1.34 1.36 0.68 0 0 Z " fill="#F7F7F7" transform="translate(17,0)"/>
<path d="M0 0 C4.29 0 8.58 0 13 0 C12.34 1.65 11.68 3.3 11 5 C7.85375007 5.26218749 6.38162983 5.24754367 3.6875 3.5 C3.130625 3.005 2.57375 2.51 2 2 C2.2784375 3.1446875 2.2784375 3.1446875 2.5625 4.3125 C3 7 3 7 2 10 C2.66 10.33 3.32 10.66 4 11 C3.67 11.66 3.34 12.32 3 13 C3.99 13.33 4.98 13.66 6 14 C4.6875 16 4.6875 16 3 18 C2.01 18 1.02 18 0 18 C0 12.06 0 6.12 0 0 Z " fill="#E6E6E6" transform="translate(0,0)"/>
<path d="M0 0 C3.96 0 7.92 0 12 0 C11.34 1.65 10.68 3.3 10 5 C7.8125 5.3125 7.8125 5.3125 5 5 C2.1875 2.5 2.1875 2.5 0 0 Z " fill="#F4F4F4" transform="translate(1,0)"/>
</svg>
