<?xml version="1.0" encoding="UTF-8"?>
<svg version="1.1" xmlns="http://www.w3.org/2000/svg" width="30" height="30">
<path d="M0 0 C9.9 0 19.8 0 30 0 C30 9.9 30 19.8 30 30 C20.1 30 10.2 30 0 30 C0 20.1 0 10.2 0 0 Z " fill="#BCB6BB" transform="translate(0,0)"/>
<path d="M0 0 C9.9 0 19.8 0 30 0 C30 7 30 7 28.125 8.9375 C26 10 26 10 24 10 C24 10.66 24 11.32 24 12 C23.01 11.67 22.02 11.34 21 11 C23.31 9.02 25.62 7.04 28 5 C24.7 4.67 21.4 4.34 18 4 C18.33 6.64 18.66 9.28 19 12 C18.34 12 17.68 12 17 12 C17 9.36 17 6.72 17 4 C15.68 4 14.36 4 13 4 C13 6.64 13 9.28 13 12 C11.68 12 10.36 12 9 12 C9 11.34 9 10.68 9 10 C8.443125 9.731875 7.88625 9.46375 7.3125 9.1875 C6.1678125 8.5996875 6.1678125 8.5996875 5 8 C4.0925 7.566875 3.185 7.13375 2.25 6.6875 C1.5075 6.130625 0.765 5.57375 0 5 C0 3.35 0 1.7 0 0 Z " fill="#FCFBFC" transform="translate(0,0)"/>
<path d="M0 0 C1.32 0 2.64 0 4 0 C4 2.97 4 5.94 4 9 C7.96 9 11.92 9 16 9 C16 10.32 16 11.64 16 13 C12.04 13 8.08 13 4 13 C4 15.64 4 18.28 4 21 C2.68 21 1.36 21 0 21 C0 18.36 0 15.72 0 13 C-3.96 13 -7.92 13 -12 13 C-12 11.68 -12 10.36 -12 9 C-8.04 9 -4.08 9 0 9 C0 6.03 0 3.06 0 0 Z " fill="#D41C2F" transform="translate(13,4)"/>
<path d="M0 0 C3.63 0 7.26 0 11 0 C8.78071806 2.90802461 7.07030857 4.95312762 4 7 C4.66 7.33 5.32 7.66 6 8 C6 7.34 6 6.68 6 6 C9.46153846 3 9.46153846 3 12 3 C12 6.63 12 10.26 12 14 C9.36 14.33 6.72 14.66 4 15 C5.65 16.65 7.3 18.3 9 20 C5.54074837 18.7508258 2.85306797 17.32472205 0 15 C0 16.98 0 18.96 0 21 C-0.33 21 -0.66 21 -1 21 C-1 18.36 -1 15.72 -1 13 C2.96 13 6.92 13 11 13 C11 11.68 11 10.36 11 9 C7.04 9 3.08 9 -1 9 C-0.67 8.34 -0.34 7.68 0 7 C0.04022391 4.6670134 0.04320247 2.33293334 0 0 Z " fill="#EDC8CF" transform="translate(18,4)"/>
<path d="M0 0 C0 1.65 0 3.3 0 5 C-9.9 5 -19.8 5 -30 5 C-30 3.68 -30 2.36 -30 1 C-25.88827252 0.85736604 -21.77653739 0.71495509 -17.66479492 0.57275391 C-16.2650532 0.52431319 -14.8653136 0.47581074 -13.46557617 0.42724609 C-11.45752511 0.35758627 -9.44946581 0.2881644 -7.44140625 0.21875 C-6.23170166 0.17685547 -5.02199707 0.13496094 -3.77563477 0.09179688 C-1 0 -1 0 0 0 Z " fill="#FDFDFD" transform="translate(30,25)"/>
<path d="M0 0 C1.98 0 3.96 0 6 0 C6 0.66 6 1.32 6 2 C7.65 1.34 9.3 0.68 11 0 C12 1 12 1 12 7 C6.06 7.495 6.06 7.495 0 8 C0 5.36 0 2.72 0 0 Z " fill="#8B84AD" transform="translate(0,18)"/>
<path d="M0 0 C1.32 0 2.64 0 4 0 C4 2.97 4 5.94 4 9 C7.96 9 11.92 9 16 9 C16 9.33 16 9.66 16 10 C6.76 10 -2.48 10 -12 10 C-12 9.67 -12 9.34 -12 9 C-8.04 9 -4.08 9 0 9 C0 6.03 0 3.06 0 0 Z " fill="#D83041" transform="translate(13,4)"/>
<path d="M0 0 C6.13636364 2.45454545 6.13636364 2.45454545 9 5 C9 5.66 9 6.32 9 7 C10.32 7.33 11.64 7.66 13 8 C9.04 8 5.08 8 1 8 C0.67 9.32 0.34 10.64 0 12 C0 8.04 0 4.08 0 0 Z " fill="#C89BAF" transform="translate(0,5)"/>
<path d="M0 0 C2.64 0 5.28 0 8 0 C8 2.31 8 4.62 8 7 C6.66382648 6.02471263 5.3311249 5.04466681 4 4.0625 C3.2575 3.51722656 2.515 2.97195312 1.75 2.41015625 C1.1725 1.94480469 0.595 1.47945313 0 1 C0 0.67 0 0.34 0 0 Z " fill="#8282B2" transform="translate(4,4)"/>
<path d="M0 0 C2.64 0 5.28 0 8 0 C3.375 4.875 3.375 4.875 0 6 C0 4.02 0 2.04 0 0 Z " fill="#7F7FB0" transform="translate(18,4)"/>
<path d="M0 0 C3.36591866 1.44253657 5.51047079 3.33264727 8 6 C5.36 6 2.72 6 0 6 C0 4.02 0 2.04 0 0 Z " fill="#1A1A72" transform="translate(18,19)"/>
<path d="M0 0 C2.64 0 5.28 0 8 0 C8 1.98 8 3.96 8 6 C4.63408134 4.55746343 2.48952921 2.66735273 0 0 Z " fill="#8F4B75" transform="translate(21,18)"/>
<path d="M0 0 C4.29 0 8.58 0 13 0 C13 2.64 13 5.28 13 8 C12.67 8 12.34 8 12 8 C11.67 6.02 11.34 4.04 11 2 C9.02 2.66 7.04 3.32 5 4 C5 3.34 5 2.68 5 2 C3.35 1.67 1.7 1.34 0 1 C0 0.67 0 0.34 0 0 Z " fill="#F8F2F4" transform="translate(0,17)"/>
<path d="M0 0 C1.32 0 2.64 0 4 0 C4 2.64 4 5.28 4 8 C3.67 7.34 3.34 6.68 3 6 C2.34 6 1.68 6 1 6 C0.67 6.66 0.34 7.32 0 8 C0 5.36 0 2.72 0 0 Z " fill="#E57884" transform="translate(13,4)"/>
<path d="M0 0 C0.66 0 1.32 0 2 0 C2 1.98 2 3.96 2 6 C-0.31 6 -2.62 6 -5 6 C-3.625 4 -3.625 4 -2 2 C-1.34 2 -0.68 2 0 2 C0 1.34 0 0.68 0 0 Z " fill="#14136E" transform="translate(10,19)"/>
<path d="M0 0 C0 3.3 0 6.6 0 10 C-0.33 10 -0.66 10 -1 10 C-1 8.35 -1 6.7 -1 5 C-2.65 5 -4.3 5 -6 5 C-6 4.34 -6 3.68 -6 3 C-2.53846154 0 -2.53846154 0 0 0 Z " fill="#A095B6" transform="translate(30,7)"/>
<path d="M0 0 C0.66 0.33 1.32 0.66 2 1 C-0.57784846 3.64752004 -2.91648098 5.94432065 -6 8 C-6.66 7.34 -7.32 6.68 -8 6 C-5.36 4.02 -2.72 2.04 0 0 Z " fill="#C56073" transform="translate(9,18)"/>
<path d="M0 0 C2.64 1.98 5.28 3.96 8 6 C7.34 6.66 6.68 7.32 6 8 C6 7.34 6 6.68 6 6 C5.401875 5.731875 4.80375 5.46375 4.1875 5.1875 C2.02775192 4.01506533 0.64209744 2.80630718 -1 1 C-0.67 0.67 -0.34 0.34 0 0 Z " fill="#F1E9EE" transform="translate(3,4)"/>
</svg>
